<svg width="1372" height="383" viewBox="0 0 1372 383" fill="none" xmlns="http://www.w3.org/2000/svg">
<path d="M1372 383L0 -5.9972e-05L0.00047154 383L1372 383Z" fill="white"/>
<path d="M158.482 249.051H192.643V292H183.971V256.258H167.154V292H158.482V249.051ZM201.49 292V249.051H215.406C220.68 249.051 224.117 249.266 225.719 249.695C228.18 250.34 230.24 251.746 231.9 253.914C233.561 256.062 234.391 258.846 234.391 262.264C234.391 264.9 233.912 267.117 232.955 268.914C231.998 270.711 230.777 272.127 229.293 273.162C227.828 274.178 226.334 274.852 224.811 275.184C222.74 275.594 219.742 275.799 215.816 275.799H210.162V292H201.49ZM210.162 256.316V268.504H214.908C218.326 268.504 220.611 268.279 221.764 267.83C222.916 267.381 223.814 266.678 224.459 265.721C225.123 264.764 225.455 263.65 225.455 262.381C225.455 260.818 224.996 259.529 224.078 258.514C223.16 257.498 221.998 256.863 220.592 256.609C219.557 256.414 217.477 256.316 214.352 256.316H210.162ZM241.51 292V249.051H273.355V256.316H250.182V265.838H271.744V273.074H250.182V284.764H274.176V292H241.51ZM281.646 249.051H289.762V277.645L307.164 249.051H315.807V292H307.691V263.963L290.318 292H281.646V249.051ZM324.537 292V249.051H337.516L345.309 278.348L353.014 249.051H366.021V292H357.965V258.191L349.439 292H341.09L332.594 258.191V292H324.537ZM370.27 249.051H379.967L389.986 271.346L398.541 249.051H407.594L393.092 281.688C391.51 285.223 389.898 287.918 388.258 289.773C386.617 291.609 384.498 292.527 381.9 292.527C379.342 292.527 377.34 292.361 375.895 292.029V285.584C377.125 285.662 378.238 285.701 379.234 285.701C381.246 285.701 382.682 285.34 383.541 284.617C384.42 283.875 385.26 282.293 386.061 279.871L370.27 249.051ZM451.453 249.3L442.425 292H407.594L416.622 249.3H425.345L417.842 284.863H422.173L429.676 249.3H438.399L430.896 284.863H435.227L442.852 249.3H451.453ZM442.608 292C442.811 290.983 443.299 290.17 444.072 289.56C444.885 288.909 445.8 288.584 446.817 288.584C447.508 288.584 448.138 288.726 448.708 289.011C449.277 289.296 449.745 289.682 450.111 290.17C450.517 290.658 450.802 291.227 450.965 291.878C451.127 292.488 451.127 293.118 450.965 293.769L450.904 294.196C450.7 295.172 450.192 295.965 449.379 296.575C448.606 297.226 447.711 297.551 446.695 297.551C446.044 297.551 445.414 297.409 444.804 297.124C444.234 296.839 443.746 296.453 443.34 295.965C442.974 295.477 442.709 294.928 442.547 294.318C442.384 293.708 442.384 293.057 442.547 292.366L442.608 292ZM457.697 292V249.051H489.543V256.316H466.369V265.838H487.931V273.074H466.369V284.764H490.363V292H457.697ZM525.197 276.209L533.605 278.875C532.316 283.562 530.168 287.049 527.16 289.334C524.172 291.6 520.373 292.732 515.763 292.732C510.06 292.732 505.373 290.789 501.701 286.902C498.029 282.996 496.193 277.664 496.193 270.906C496.193 263.758 498.039 258.211 501.73 254.266C505.422 250.301 510.275 248.318 516.291 248.318C521.545 248.318 525.812 249.871 529.094 252.977C531.047 254.812 532.512 257.449 533.488 260.887L524.904 262.938C524.396 260.711 523.332 258.953 521.711 257.664C520.109 256.375 518.156 255.73 515.851 255.73C512.668 255.73 510.08 256.873 508.088 259.158C506.115 261.443 505.129 265.145 505.129 270.262C505.129 275.691 506.105 279.559 508.058 281.863C510.012 284.168 512.551 285.32 515.676 285.32C517.98 285.32 519.963 284.588 521.623 283.123C523.283 281.658 524.474 279.354 525.197 276.209ZM549.221 292V256.316H536.476V249.051H570.607V256.316H557.892V292H549.221ZM576.262 249.051H593.43C596.828 249.051 599.357 249.197 601.017 249.49C602.697 249.764 604.191 250.35 605.5 251.248C606.828 252.146 607.931 253.348 608.81 254.852C609.689 256.336 610.129 258.006 610.129 259.861C610.129 261.873 609.582 263.719 608.488 265.398C607.414 267.078 605.949 268.338 604.094 269.178C606.711 269.939 608.722 271.238 610.129 273.074C611.535 274.91 612.238 277.068 612.238 279.549C612.238 281.502 611.779 283.406 610.861 285.262C609.963 287.098 608.722 288.572 607.14 289.686C605.578 290.779 603.644 291.453 601.34 291.707C599.894 291.863 596.408 291.961 590.881 292H576.262V249.051ZM584.933 256.199V266.131H590.617C593.996 266.131 596.096 266.082 596.916 265.984C598.4 265.809 599.562 265.301 600.402 264.461C601.262 263.602 601.691 262.479 601.691 261.092C601.691 259.764 601.32 258.689 600.578 257.869C599.855 257.029 598.771 256.521 597.326 256.346C596.467 256.248 593.996 256.199 589.914 256.199H584.933ZM584.933 273.279V284.764H592.961C596.086 284.764 598.068 284.676 598.908 284.5C600.197 284.266 601.242 283.699 602.043 282.801C602.863 281.883 603.273 280.662 603.273 279.139C603.273 277.85 602.961 276.756 602.336 275.857C601.711 274.959 600.803 274.305 599.611 273.895C598.439 273.484 595.881 273.279 591.935 273.279H584.933ZM655.334 292H645.9L642.15 282.244H624.982L621.437 292H612.238L628.967 249.051H638.137L655.334 292ZM639.367 275.008L633.449 259.07L627.648 275.008H639.367Z" fill="black"/>
</svg>
