<svg width="1353" height="77" viewBox="0 0 1353 77" fill="none" xmlns="http://www.w3.org/2000/svg">
<path d="M0 1.26979H55.5868V13.7645H15.0125V31.0336H35.0968C40.6419 31.0336 45.2403 31.7109 48.892 33.0653C52.5437 34.4197 55.6544 36.9255 58.2241 40.5825C60.8276 44.2394 62.1294 48.5229 62.1294 53.4327C62.1294 58.478 60.8276 62.7953 58.2241 66.3846C55.6206 69.9738 52.6451 72.4288 49.2977 73.7493C45.9842 75.0699 41.2505 75.7302 35.0968 75.7302H0V1.26979ZM15.0125 63.2355H29.6192C34.2853 63.2355 37.565 63.0154 39.4585 62.5752C41.352 62.1011 42.9918 61.0515 44.3781 59.4261C45.7982 57.8008 46.5083 55.803 46.5083 53.4327C46.5083 49.9789 45.2741 47.4732 42.8059 45.9156C40.3714 44.3241 36.1956 43.5284 30.2786 43.5284H15.0125V63.2355Z" fill="#EB5A21"/>
<path d="M77.0404 1.26979H129.128V75.7302H114.115V13.8661H91.7486V45.6616C91.7486 54.7702 91.4443 61.1361 90.8357 64.7592C90.2271 68.3485 88.7393 71.159 86.3725 73.1906C84.0395 75.1884 80.3709 76.1873 75.3667 76.1873C73.6085 76.1873 70.4133 76.018 65.781 75.6794V64.0482L69.1284 64.0989C72.2729 64.0989 74.3862 63.6757 75.4682 62.8292C76.5501 61.9826 77.0911 59.9002 77.0911 56.5818L77.0404 43.7823V1.26979Z" fill="#EB5A21"/>
<path d="M211.696 75.7302H195.365L188.873 58.8166H159.153L153.016 75.7302H137.09L166.05 1.26979H181.925L211.696 75.7302ZM184.055 46.2711L173.81 18.6405L163.768 46.2711H184.055Z" fill="#EB5A21"/>
<path d="M220.47 1.26979H270.833V13.7645H235.483V75.7302H220.47V1.26979Z" fill="#EB5A21"/>
<path d="M274.181 38.9571C274.181 31.3723 275.313 25.0064 277.579 19.8595C279.269 16.0671 281.569 12.664 284.476 9.6504C287.418 6.63676 290.63 4.40193 294.113 2.94591C298.745 0.98197 304.087 0 310.14 0C321.095 0 329.852 3.40303 336.411 10.2091C343.005 17.0152 346.301 26.4793 346.301 38.6016C346.301 50.6223 343.039 60.0356 336.513 66.8417C329.987 73.6139 321.264 77 310.343 77C299.286 77 290.495 73.6308 283.969 66.8925C277.444 60.1203 274.181 50.8085 274.181 38.9571ZM289.65 38.4492C289.65 46.8806 291.594 53.2803 295.482 57.6484C299.371 61.9826 304.307 64.1497 310.292 64.1497C316.277 64.1497 321.179 61.9996 325 57.6992C328.855 53.365 330.782 46.8806 330.782 38.246C330.782 29.7131 328.905 23.3472 325.152 19.1484C321.433 14.9496 316.479 12.8503 310.292 12.8503C304.104 12.8503 299.117 14.9835 295.33 19.25C291.543 23.4826 289.65 29.8824 289.65 38.4492Z" fill="#EB5A21"/>
<path d="M374.805 75.7302V13.8661H352.743V1.26979H411.829V13.8661H389.817V75.7302H374.805Z" fill="#EB5A21"/>
<path d="M421.617 1.26979H451.338C457.221 1.26979 461.6 1.52375 464.474 2.03166C467.382 2.50572 469.968 3.52155 472.234 5.07916C474.533 6.63676 476.443 8.71922 477.965 11.3265C479.487 13.9 480.247 16.7951 480.247 20.0119C480.247 23.4996 479.301 26.6994 477.407 29.6115C475.547 32.5235 473.012 34.7076 469.799 36.1636C474.33 37.4842 477.813 39.7359 480.247 42.9189C482.682 46.1018 483.899 49.8434 483.899 54.1438C483.899 57.5299 483.104 60.8314 481.515 64.0482C479.96 67.2311 477.813 69.7876 475.074 71.7177C472.369 73.6139 469.022 74.7821 465.032 75.2223C462.53 75.4932 456.494 75.6625 446.926 75.7302H421.617V1.26979ZM436.63 13.6629V30.8813H446.469C452.319 30.8813 455.953 30.7966 457.374 30.6273C459.943 30.3226 461.955 29.4422 463.409 27.9861C464.897 26.4963 465.641 24.5493 465.641 22.1451C465.641 19.8426 464.998 17.9802 463.713 16.558C462.462 15.102 460.586 14.2216 458.084 13.9169C456.596 13.7476 452.319 13.6629 445.252 13.6629H436.63ZM436.63 43.2744V63.1847H450.527C455.937 63.1847 459.368 63.0323 460.822 62.7276C463.054 62.3212 464.863 61.3393 466.249 59.7817C467.669 58.1902 468.379 56.0739 468.379 53.4327C468.379 51.1979 467.838 49.3017 466.756 47.7441C465.674 46.1865 464.102 45.0521 462.04 44.341C460.011 43.6299 455.582 43.2744 448.752 43.2744H436.63Z" fill="#EB5A21"/>
<path d="M490.949 38.9571C490.949 31.3723 492.081 25.0064 494.347 19.8595C496.037 16.0671 498.337 12.664 501.244 9.6504C504.186 6.63676 507.398 4.40193 510.881 2.94591C515.513 0.98197 520.855 0 526.908 0C537.863 0 546.62 3.40303 553.18 10.2091C559.773 17.0152 563.07 26.4793 563.07 38.6016C563.07 50.6223 559.807 60.0356 553.281 66.8417C546.755 73.6139 538.032 77 527.111 77C516.054 77 507.263 73.6308 500.737 66.8925C494.212 60.1203 490.949 50.8085 490.949 38.9571ZM506.418 38.4492C506.418 46.8806 508.362 53.2803 512.25 57.6484C516.139 61.9826 521.075 64.1497 527.06 64.1497C533.045 64.1497 537.947 61.9996 541.768 57.6992C545.623 53.365 547.55 46.8806 547.55 38.246C547.55 29.7131 545.673 23.3472 541.92 19.1484C538.201 14.9496 533.247 12.8503 527.06 12.8503C520.872 12.8503 515.885 14.9835 512.098 19.25C508.311 23.4826 506.418 29.8824 506.418 38.4492Z" fill="#EB5A21"/>
<path d="M574.836 75.7302V1.26979H598.927C608.056 1.26979 614.007 1.64226 616.78 2.3872C621.04 3.50462 624.607 5.94261 627.481 9.70119C630.355 13.4259 631.792 18.2511 631.792 24.1768C631.792 28.748 630.964 32.5912 629.307 35.7065C627.65 38.8217 625.537 41.2766 622.967 43.0712C620.431 44.832 617.845 46.0002 615.208 46.5759C611.623 47.2869 606.433 47.6425 599.637 47.6425H589.849V75.7302H574.836ZM589.849 13.8661V34.9954H598.065C603.982 34.9954 607.938 34.606 609.933 33.8272C611.928 33.0484 613.483 31.8294 614.599 30.1702C615.748 28.511 616.323 26.5809 616.323 24.3799C616.323 21.6711 615.529 19.4362 613.94 17.6755C612.35 15.9147 610.339 14.8142 607.904 14.374C606.112 14.0354 602.511 13.8661 597.101 13.8661H589.849Z" fill="#EB5A21"/>
<path d="M644.32 1.26979H658.368V50.8423L688.495 1.26979H703.457V75.7302H689.408V27.1227L659.332 75.7302H644.32V1.26979Z" fill="#EB5A21"/>
<path d="M735.51 75.7302V13.8661H713.448V1.26979H772.534V13.8661H750.523V75.7302H735.51Z" fill="#EB5A21"/>
<path d="M782.272 75.7302V1.26979H837.402V13.8661H797.285V30.3734H834.613V42.9189H797.285V63.1847H838.822V75.7302H782.272Z" fill="#EB5A21"/>
<path d="M856.878 1.26979H908.965V75.7302H893.953V13.8661H871.586V45.6616C871.586 54.7702 871.282 61.1361 870.673 64.7592C870.065 68.3485 868.577 71.159 866.21 73.1906C863.877 75.1884 860.209 76.1873 855.204 76.1873C853.446 76.1873 850.251 76.018 845.619 75.6794V64.0482L848.966 64.0989C852.111 64.0989 854.224 63.6757 855.306 62.8292C856.388 61.9826 856.929 59.9002 856.929 56.5818L856.878 43.7823V1.26979Z" fill="#EB5A21"/>
<path d="M924.789 1.26979H939.802V31.0336H959.886C969.353 31.0336 976.2 33.2515 980.427 37.6873C984.687 42.1231 986.817 47.4393 986.817 53.6359C986.817 58.715 985.532 63.0323 982.963 66.5877C980.393 70.1431 977.451 72.5642 974.138 73.8509C970.858 75.1038 966.107 75.7302 959.886 75.7302H924.789V1.26979ZM939.802 63.2355H954.408C959.142 63.2355 962.422 63.0154 964.248 62.5752C966.074 62.1011 967.697 61.0515 969.117 59.4261C970.571 57.8008 971.298 55.803 971.298 53.4327C971.298 50.0128 970.063 47.507 967.595 45.9156C965.161 44.3241 960.985 43.5284 955.068 43.5284H939.802V63.2355Z" fill="#EB5A21"/>
<path d="M1066.27 2.91543L1050.89 75.7302H1036.14L1043.62 39.4268H1014.12L1006.44 75.7302H991.585L1006.96 2.91543H1021.91L1016.83 27.0483H1046.43L1051.52 2.91543H1066.27Z" fill="#EB5A21"/>
<path d="M1070.86 38.9571C1070.86 31.3723 1071.99 25.0064 1074.25 19.8595C1075.95 16.0671 1078.24 12.664 1081.15 9.6504C1084.09 6.63676 1087.31 4.40193 1090.79 2.94591C1095.42 0.98197 1100.76 0 1106.82 0C1117.77 0 1126.53 3.40303 1133.09 10.2091C1139.68 17.0152 1142.98 26.4793 1142.98 38.6016C1142.98 50.6223 1139.71 60.0356 1133.19 66.8417C1126.66 73.6139 1117.94 77 1107.02 77C1095.96 77 1087.17 73.6308 1080.65 66.8925C1074.12 60.1203 1070.86 50.8085 1070.86 38.9571ZM1086.33 38.4492C1086.33 46.8806 1088.27 53.2803 1092.16 57.6484C1096.05 61.9826 1100.98 64.1497 1106.97 64.1497C1112.95 64.1497 1117.86 61.9996 1121.68 57.6992C1125.53 53.365 1127.46 46.8806 1127.46 38.246C1127.46 29.7131 1125.58 23.3472 1121.83 19.1484C1118.11 14.9496 1113.16 12.8503 1106.97 12.8503C1100.78 12.8503 1095.79 14.9835 1092.01 19.25C1088.22 23.4826 1086.33 29.8824 1086.33 38.4492Z" fill="#EB5A21"/>
<path d="M1202.32 48.3536L1216.87 52.9756C1214.64 61.1022 1210.92 67.1464 1205.72 71.1082C1200.54 75.0361 1193.97 77 1185.99 77C1176.11 77 1168 73.6308 1161.64 66.8925C1155.28 60.1203 1152.11 50.8762 1152.11 39.1603C1152.11 26.7672 1155.3 17.1506 1161.69 10.3107C1168.08 3.4369 1176.49 0 1186.9 0C1195.99 0 1203.38 2.69195 1209.06 8.07586C1212.44 11.2588 1214.98 15.83 1216.67 21.7896L1201.81 25.345C1200.93 21.4848 1199.09 18.4373 1196.28 16.2025C1193.51 13.9677 1190.13 12.8503 1186.14 12.8503C1180.63 12.8503 1176.15 14.8311 1172.7 18.7929C1169.28 22.7546 1167.58 29.1713 1167.58 38.0429C1167.58 47.4562 1169.27 54.1607 1172.65 58.1563C1176.03 62.1519 1180.42 64.1497 1185.83 64.1497C1189.82 64.1497 1193.26 62.8799 1196.13 60.3404C1199 57.8008 1201.07 53.8052 1202.32 48.3536Z" fill="#EB5A21"/>
<path d="M1243.91 75.7302V13.8661H1221.84V1.26979H1280.93V13.8661H1258.92V75.7302H1243.91Z" fill="#EB5A21"/>
<path d="M1290.97 1.26979H1305.98V31.0336H1326.07C1335.54 31.0336 1342.38 33.2515 1346.61 37.6873C1350.87 42.1231 1353 47.4393 1353 53.6359C1353 58.715 1351.72 63.0323 1349.15 66.5877C1346.58 70.1431 1343.63 72.5642 1340.32 73.8509C1337.04 75.1038 1332.29 75.7302 1326.07 75.7302H1290.97V1.26979ZM1305.98 63.2355H1320.59C1325.33 63.2355 1328.6 63.0154 1330.43 62.5752C1332.26 62.1011 1333.88 61.0515 1335.3 59.4261C1336.75 57.8008 1337.48 55.803 1337.48 53.4327C1337.48 50.0128 1336.25 47.507 1333.78 45.9156C1331.34 44.3241 1327.17 43.5284 1321.25 43.5284H1305.98V63.2355Z" fill="#EB5A21"/>
</svg>
