<svg width="571" height="197" viewBox="0 0 571 197" fill="none" xmlns="http://www.w3.org/2000/svg">
<path d="M3.35059 1.27222H58.9907V13.7908H18.3775V31.0929H38.481C44.0315 31.0929 48.6343 31.7715 52.2895 33.1285C55.9447 34.4855 59.0584 36.996 61.6306 40.66C64.2366 44.324 65.5396 48.6156 65.5396 53.5348C65.5396 58.5898 64.2366 62.9153 61.6306 66.5114C59.0246 70.1075 56.0463 72.5672 52.6957 73.8903C49.3789 75.2134 44.6407 75.8749 38.481 75.8749H3.35059V1.27222ZM18.3775 63.3563H32.9982C37.6688 63.3563 40.9517 63.1358 42.847 62.6948C44.7422 62.2198 46.3837 61.1681 47.7713 59.5397C49.1928 57.9112 49.9035 55.9096 49.9035 53.5348C49.9035 50.0744 48.6682 47.5639 46.1975 46.0033C43.7608 44.4088 39.581 43.6115 33.6582 43.6115H18.3775V63.3563Z" fill="#EB5A21"/>
<path d="M78.1805 1.27222H93.2074V31.0929H113.311C118.591 31.0929 123.126 31.8223 126.916 33.2812C130.741 34.706 133.922 37.2844 136.46 41.0162C138.999 44.7141 140.268 48.9718 140.268 53.7893C140.268 58.8442 138.948 63.2037 136.308 66.8676C133.668 70.4977 130.724 72.9064 127.475 74.0938C124.26 75.2812 119.538 75.8749 113.311 75.8749H78.1805V1.27222ZM93.2074 63.3563H107.879C112.549 63.3563 115.798 63.1358 117.626 62.6948C119.488 62.2198 121.129 61.1681 122.55 59.5397C124.006 57.9112 124.733 55.9266 124.733 53.5857C124.733 50.261 123.549 47.7674 121.18 46.1051C118.844 44.4427 114.614 43.6115 108.488 43.6115H93.2074V63.3563ZM148.949 1.27222H163.976V75.8749H148.949V1.27222Z" fill="#EB5A21"/>
<path d="M227.231 48.446L241.801 53.0768C239.567 61.219 235.844 67.2747 230.632 71.2441C225.454 75.1794 218.871 77.1471 210.884 77.1471C201.002 77.1471 192.879 73.7715 186.516 67.0203C180.154 60.2352 176.972 50.9734 176.972 39.2351C176.972 26.8183 180.17 17.1834 186.567 10.3304C192.964 3.44346 201.374 0 211.798 0C220.902 0 228.297 2.6971 233.983 8.09129C237.367 11.2803 239.906 15.8603 241.598 21.8312L226.723 25.3934C225.843 21.5259 223.999 18.4726 221.19 16.2335C218.415 13.9944 215.03 12.8748 211.036 12.8748C205.52 12.8748 201.035 14.8595 197.583 18.8288C194.165 22.7981 192.456 29.227 192.456 38.1156C192.456 47.5469 194.148 54.2642 197.533 58.2675C200.917 62.2707 205.317 64.2723 210.732 64.2723C214.726 64.2723 218.161 63.0001 221.038 60.4557C223.914 57.9112 225.979 53.908 227.231 48.446Z" fill="#EB5A21"/>
<path d="M310.916 2.921L308.317 15.0105H286.067L273.175 75.8749H258.203L271.095 15.0105H261.634C261.01 16.817 259.901 18.3108 258.307 19.492C256.782 20.6036 255.049 21.1595 253.109 21.1595H249.158C248.534 21.1595 248.049 21.1247 247.702 21.0553L251.549 2.921H310.916Z" fill="#EB5A21"/>
<path d="M318.53 75.8749V1.27222H342.644C351.782 1.27222 357.738 1.6454 360.513 2.39176C364.778 3.51131 368.348 5.95397 371.225 9.71972C374.102 13.4516 375.54 18.286 375.54 24.223C375.54 28.803 374.711 32.6535 373.053 35.7747C371.394 38.8959 369.279 41.3555 366.707 43.1535C364.169 44.9177 361.58 46.0881 358.94 46.6649C355.352 47.3773 350.157 47.7335 343.354 47.7335H333.556V75.8749H318.53ZM333.556 13.8926V35.0623H341.781C347.703 35.0623 351.663 34.6721 353.66 33.8918C355.657 33.1115 357.214 31.8902 358.331 30.2278C359.481 28.5655 360.057 26.6317 360.057 24.4265C360.057 21.7125 359.261 19.4734 357.671 17.7092C356.08 15.9451 354.066 14.8425 351.629 14.4015C349.836 14.0622 346.231 13.8926 340.816 13.8926H333.556Z" fill="#EB5A21"/>
<path d="M383.409 39.0316C383.409 31.4322 384.543 25.0542 386.811 19.8974C388.503 16.0978 390.804 12.6882 393.715 9.66884C396.659 6.64945 399.874 4.41035 403.36 2.95154C407.997 0.983847 413.345 0 419.403 0C430.368 0 439.134 3.40954 445.7 10.2286C452.299 17.0477 455.599 26.5299 455.599 38.6753C455.599 50.719 452.333 60.1503 445.801 66.9694C439.269 73.7546 430.537 77.1471 419.606 77.1471C408.539 77.1471 399.739 73.7715 393.207 67.0203C386.675 60.2352 383.409 50.9056 383.409 39.0316ZM398.893 38.5227C398.893 46.9702 400.839 53.3822 404.731 57.7586C408.623 62.1011 413.565 64.2723 419.555 64.2723C425.545 64.2723 430.453 62.118 434.277 57.8095C438.136 53.467 440.065 46.9702 440.065 38.3191C440.065 29.7698 438.186 23.3918 434.43 19.185C430.707 14.9782 425.748 12.8748 419.555 12.8748C413.361 12.8748 408.369 15.0121 404.579 19.2868C400.788 23.5275 398.893 29.9395 398.893 38.5227Z" fill="#EB5A21"/>
<path d="M467.377 75.8749V1.27222H522.56V13.8926H482.404V30.4314H519.768V43.0009H482.404V63.3054H523.982V75.8749H467.377Z" fill="#EB5A21"/>
<path d="M0 158.884C0 151.285 1.13379 144.907 3.40136 139.75C5.09358 135.951 7.39499 132.541 10.3056 129.522C13.2501 126.502 16.4653 124.263 19.9512 122.804C24.5879 120.837 29.9353 119.853 35.9935 119.853C46.959 119.853 55.7247 123.262 62.2905 130.081C68.8902 136.901 72.19 146.383 72.19 158.528C72.19 170.572 68.924 180.003 62.3921 186.822C55.8601 193.607 47.1283 197 36.1965 197C25.1294 197 16.3299 193.624 9.79794 186.873C3.26598 180.088 0 170.758 0 158.884ZM15.4838 158.376C15.4838 166.823 17.4298 173.235 21.3219 177.611C25.214 181.954 30.1553 184.125 36.1458 184.125C42.1362 184.125 47.0437 181.971 50.8681 177.662C54.7263 173.32 56.6555 166.823 56.6555 158.172C56.6555 149.623 54.7771 143.245 51.0204 139.038C47.2975 134.831 42.3393 132.728 36.1458 132.728C29.9523 132.728 24.9602 134.865 21.1696 139.14C17.3791 143.38 15.4838 149.792 15.4838 158.376Z" fill="#EB5A21"/>
<path d="M84.2725 121.125H139.913V133.644H99.2993V150.946H119.403C124.953 150.946 129.556 151.624 133.211 152.981C136.867 154.338 139.98 156.849 142.552 160.513C145.158 164.177 146.461 168.468 146.461 173.388C146.461 178.443 145.158 182.768 142.552 186.364C139.946 189.96 136.968 192.42 133.618 193.743C130.301 195.066 125.563 195.728 119.403 195.728H84.2725V121.125ZM99.2993 183.209H113.92C118.591 183.209 121.874 182.989 123.769 182.548C125.664 182.073 127.306 181.021 128.693 179.393C130.115 177.764 130.825 175.762 130.825 173.388C130.825 169.927 129.59 167.417 127.119 165.856C124.683 164.262 120.503 163.464 114.58 163.464H99.2993V183.209Z" fill="#EB5A21"/>
<path d="M148.492 121.125H165.296L182.658 159.851L197.482 121.125H213.169L188.039 177.815C185.298 183.956 182.506 188.637 179.663 191.86C176.82 195.049 173.148 196.644 168.646 196.644C164.213 196.644 160.744 196.355 158.239 195.779V184.583C160.371 184.719 162.301 184.787 164.027 184.787C167.513 184.787 170 184.159 171.489 182.904C173.012 181.615 174.468 178.867 175.855 174.66L148.492 121.125Z" fill="#EB5A21"/>
<path d="M219.515 121.125H234.541V138.936C234.541 144.703 234.744 148.537 235.151 150.437C235.591 152.303 236.86 153.931 238.958 155.322C241.056 156.713 244.136 157.409 248.198 157.409C251.413 157.409 254.273 157.069 256.777 156.391C259.282 155.678 261.448 154.644 263.275 153.287V121.125H278.302V195.728H263.275V165.703C260.229 167.061 257.234 168.095 254.29 168.808C251.345 169.486 248.451 169.825 245.609 169.825C238.197 169.825 231.986 168.078 226.977 164.584C222.002 161.056 219.515 154.966 219.515 146.315V121.125Z" fill="#EB5A21"/>
<path d="M293.837 195.728V121.125H349.02V133.745H308.864V150.284H346.228V162.854H308.864V183.158H350.441V195.728H293.837Z" fill="#EB5A21"/>
<path d="M363.235 195.728V121.125H378.261V150.488H407.706V121.125H422.733V195.728H407.706V163.108H378.261V195.728H363.235Z" fill="#EB5A21"/>
<path d="M506.754 121.558L491.11 195.728H476.101L483.817 158.643L445.87 195.728H430.754L446.398 121.558H461.619L451.155 171.04L489.208 133.531L491.745 121.558H506.754Z" fill="#EB5A21"/>
<path d="M514.395 195.728V121.125H569.579V133.745H529.422V150.284H566.786V162.854H529.422V183.158H571V195.728H514.395Z" fill="#EB5A21"/>
</svg>
