<svg width="1629" height="211" viewBox="0 0 1629 211" fill="none" xmlns="http://www.w3.org/2000/svg">
<path d="M0 1.26614H29.7267C35.6112 1.26614 39.9908 1.51937 42.8654 2.02583C45.7738 2.49852 48.3609 3.51143 50.6268 5.06457C52.9265 6.6177 54.8372 8.69417 56.3591 11.294C57.8809 13.86 58.6418 16.7468 58.6418 19.9544C58.6418 23.4321 57.6949 26.6227 55.8011 29.5264C53.941 32.4301 51.4046 34.6079 48.1918 36.0597C52.7235 37.3765 56.2069 39.6218 58.6418 42.7956C61.0768 45.9694 62.2943 49.7003 62.2943 53.9883C62.2943 57.3647 61.4995 60.6566 59.91 63.8642C58.3544 67.038 56.2069 69.5872 53.4676 71.5117C50.7621 73.4025 47.414 74.5673 43.4234 75.0062C40.9208 75.2764 34.8841 75.4452 25.3134 75.5127H0V1.26614ZM15.0156 13.6237V30.7926H24.8568C30.7075 30.7926 34.343 30.7082 35.7634 30.5393C38.3336 30.2355 40.3459 29.3576 41.8001 27.9058C43.2881 26.4202 44.0321 24.4787 44.0321 22.0815C44.0321 19.7856 43.3896 17.9286 42.1044 16.5105C40.8531 15.0586 38.9762 14.1808 36.4736 13.8769C34.9856 13.7081 30.7075 13.6237 23.6394 13.6237H15.0156ZM15.0156 43.1501V63.0032H28.9151C34.3261 63.0032 37.7587 62.8513 39.2129 62.5474C41.445 62.1422 43.2543 61.1631 44.6408 59.61C46.0612 58.0231 46.7714 55.9128 46.7714 53.2792C46.7714 51.0508 46.2303 49.1601 45.1481 47.6069C44.0659 46.0538 42.4934 44.9227 40.4304 44.2137C38.4013 43.5046 33.971 43.1501 27.1396 43.1501H15.0156Z" fill="#EB5A21"/>
<path d="M118.653 48.2147L133.212 52.8234C130.98 60.9267 127.26 66.9536 122.052 70.9039C116.878 74.8205 110.3 76.7788 102.319 76.7788C92.4438 76.7788 84.3272 73.4193 77.9693 66.7004C71.6114 59.9476 68.4324 50.7301 68.4324 39.0478C68.4324 26.6903 71.6283 17.1014 78.02 10.2811C84.4118 3.42702 92.8158 0 103.232 0C112.329 0 119.719 2.68422 125.4 8.05266C128.782 11.2265 131.318 15.7846 133.009 21.727L118.146 25.2722C117.267 21.4231 115.424 18.3844 112.617 16.156C109.844 13.9276 106.462 12.8134 102.471 12.8134C96.9586 12.8134 92.4776 14.7885 89.0281 18.7389C85.6124 22.6893 83.9045 29.0875 83.9045 37.9336C83.9045 47.3199 85.5954 54.0052 88.9773 57.9893C92.3592 61.9734 96.7557 63.9655 102.167 63.9655C106.157 63.9655 109.59 62.6993 112.465 60.1671C115.339 57.6348 117.402 53.6506 118.653 48.2147Z" fill="#EB5A21"/>
<path d="M190.637 75.5127V44.5175H187.593C182.858 44.5175 179.51 45.2266 177.549 46.6447C175.621 48.0627 172.307 52.3001 167.606 59.3567L156.75 75.5127H138.792L147.873 61.028C151.458 55.2882 154.315 51.2703 156.446 48.9744C158.576 46.6447 161.248 44.5682 164.461 42.7449C157.528 41.6645 152.523 39.2673 149.445 35.5533C146.368 31.8055 144.829 27.3318 144.829 22.1322C144.829 17.6078 145.962 13.6068 148.228 10.1291C150.528 6.6177 153.537 4.27112 157.258 3.08939C161.011 1.87389 166.608 1.26614 174.049 1.26614H205.652V75.5127H190.637ZM190.637 13.8263H178.918C172.966 13.8263 169.043 13.9613 167.15 14.2314C165.29 14.5015 163.683 15.4132 162.33 16.9663C160.978 18.5194 160.301 20.5453 160.301 23.0438C160.301 25.6436 160.944 27.7201 162.229 29.2732C163.548 30.7926 165.205 31.738 167.2 32.1094C169.229 32.4808 173.338 32.6665 179.527 32.6665H190.637V13.8263Z" fill="#EB5A21"/>
<path d="M249.938 1.26614H309.087V75.5127H294.072V13.725H264.954V75.5127H249.938V1.26614Z" fill="#EB5A21"/>
<path d="M321.363 38.8452C321.363 31.2821 322.496 24.9346 324.762 19.8025C326.453 16.0209 328.753 12.6277 331.661 9.62268C334.603 6.6177 337.816 4.38929 341.3 2.93745C345.933 0.97915 351.276 0 357.33 0C368.287 0 377.046 3.39326 383.607 10.1798C390.202 16.9663 393.499 26.4033 393.499 38.4907C393.499 50.4769 390.235 59.8632 383.708 66.6497C377.181 73.4025 368.456 76.7788 357.533 76.7788C346.474 76.7788 337.681 73.4193 331.154 66.7004C324.627 59.9476 321.363 50.6626 321.363 38.8452ZM336.836 38.3388C336.836 46.746 338.78 53.1273 342.669 57.4828C346.558 61.8046 351.496 63.9655 357.482 63.9655C363.468 63.9655 368.372 61.8215 372.193 57.5335C376.048 53.2117 377.976 46.746 377.976 38.1362C377.976 29.6277 376.099 23.2801 372.345 19.0934C368.625 14.9067 363.671 12.8134 357.482 12.8134C351.293 12.8134 346.305 14.9405 342.517 19.1947C338.729 23.4152 336.836 29.7965 336.836 38.3388Z" fill="#EB5A21"/>
<path d="M407.956 1.26614H460.054V75.5127H445.039V13.8263H422.668V45.5305C422.668 54.6129 422.363 60.9605 421.755 64.5732C421.146 68.1522 419.658 70.9546 417.29 72.9804C414.957 74.9725 411.288 75.9685 406.282 75.9685C404.524 75.9685 401.328 75.7997 396.695 75.4621V63.8642L400.043 63.9148C403.188 63.9148 405.302 63.4928 406.384 62.6487C407.466 61.8046 408.007 59.7281 408.007 56.4193L407.956 43.6566V1.26614Z" fill="#EB5A21"/>
<path d="M475.577 75.5127V1.26614H530.719V13.8263H490.593V30.2861H527.929V42.7956H490.593V63.0032H532.139V75.5127H475.577Z" fill="#EB5A21"/>
<path d="M555.474 21.5244L540.864 18.1312C544.01 6.04372 552.955 0 567.7 0C576.425 0 583.003 1.92454 587.433 5.77361C591.897 9.58891 594.129 14.0795 594.129 19.2454C594.129 22.7906 593.115 25.9981 591.085 28.868C589.056 31.7042 586.013 34.2027 581.954 36.3636C586.892 38.0518 590.595 40.449 593.064 43.5553C595.533 46.6278 596.767 50.4262 596.767 54.9506C596.767 61.467 594.366 66.7341 589.564 70.752C584.795 74.7699 577.642 76.7788 568.106 76.7788C560.327 76.7788 554.189 75.4958 549.691 72.9298C545.193 70.33 541.811 65.4849 539.546 58.3945L553.293 53.887C554.713 58.3438 556.59 61.2306 558.924 62.5474C561.291 63.8642 564.199 64.5226 567.649 64.5226C572.384 64.5226 575.833 63.5097 577.998 61.4838C580.162 59.4243 581.244 57.0777 581.244 54.4441C581.244 51.4054 580.01 48.9575 577.541 47.1005C575.106 45.2435 571.42 44.315 566.482 44.315H563.083V33.1223H564.808C569.408 33.1223 572.925 32.0925 575.36 30.0329C577.795 27.9733 579.012 25.2384 579.012 21.8283C579.012 19.1272 578.014 16.8481 576.019 14.9911C574.058 13.1341 571.234 12.2056 567.548 12.2056C561.257 12.2056 557.233 15.3119 555.474 21.5244Z" fill="#EB5A21"/>
<path d="M610.058 75.5127V1.26614H625.073V30.4887H654.496V1.26614H669.511V75.5127H654.496V43.0488H625.073V75.5127H610.058Z" fill="#EB5A21"/>
<path d="M752.148 75.5127H735.813L729.32 58.6477H699.593L693.455 75.5127H677.526L706.492 1.26614H722.37L752.148 75.5127ZM724.501 46.1382L714.254 18.587L704.209 46.1382H724.501Z" fill="#EB5A21"/>
<path d="M804.651 75.5127V44.5175H801.608C796.873 44.5175 793.525 45.2266 791.563 46.6447C789.636 48.0627 786.322 52.3001 781.621 59.3567L770.765 75.5127H752.807L761.887 61.028C765.472 55.2882 768.33 51.2703 770.46 48.9744C772.591 46.6447 775.263 44.5682 778.476 42.7449C771.543 41.6645 766.538 39.2673 763.46 35.5533C760.382 31.8055 758.844 27.3318 758.844 22.1322C758.844 17.6078 759.977 13.6068 762.243 10.1291C764.542 6.6177 767.552 4.27112 771.272 3.08939C775.026 1.87389 780.623 1.26614 788.063 1.26614H819.667V75.5127H804.651ZM804.651 13.8263H792.933C786.981 13.8263 783.058 13.9613 781.164 14.2314C779.304 14.5015 777.698 15.4132 776.345 16.9663C774.992 18.5194 774.316 20.5453 774.316 23.0438C774.316 25.6436 774.958 27.7201 776.244 29.2732C777.562 30.7926 779.22 31.738 781.215 32.1094C783.244 32.4808 787.353 32.6665 793.542 32.6665H804.651V13.8263Z" fill="#EB5A21"/>
<path d="M863.953 1.26614H878.004V50.6963L908.137 1.26614H923.102V75.5127H909.05V27.0448L878.968 75.5127H863.953V1.26614Z" fill="#EB5A21"/>
<path d="M938.472 75.5127V1.26614H953.488V30.4887H982.91V1.26614H997.926V75.5127H982.91V43.0488H953.488V75.5127H938.472Z" fill="#EB5A21"/>
<path d="M1057.63 66.8523V75.5127H1042.92V66.8523C1031.05 66.4134 1022.66 63.4928 1017.76 58.0906C1012.89 52.6546 1010.46 45.8681 1010.46 37.731C1010.46 29.155 1013.01 22.2841 1018.12 17.1182C1023.22 11.9186 1031.49 9.09934 1042.92 8.66041V1.31679H1057.63V8.66041C1069.44 9.09934 1077.79 12.003 1082.69 17.3715C1087.63 22.7399 1090.1 29.5433 1090.1 37.7817C1090.1 45.9525 1087.65 52.739 1082.74 58.1412C1077.84 63.5097 1069.47 66.4134 1057.63 66.8523ZM1057.63 54.3428C1061.56 54.3428 1064.92 53.6844 1067.73 52.3676C1070.57 51.0508 1072.58 49.2782 1073.76 47.0498C1074.95 44.8214 1075.54 41.5632 1075.54 37.2752C1075.54 26.5383 1069.57 21.1699 1057.63 21.1699V54.3428ZM1042.92 54.3428V21.1699C1036.6 21.1699 1032.03 22.588 1029.23 25.4241C1026.42 28.2265 1025.01 32.4808 1025.01 38.1868C1025.01 48.9575 1030.98 54.3428 1042.92 54.3428Z" fill="#EB5A21"/>
<path d="M1099.13 38.8452C1099.13 31.2821 1100.26 24.9346 1102.53 19.8025C1104.22 16.0209 1106.52 12.6277 1109.43 9.62268C1112.37 6.6177 1115.58 4.38929 1119.06 2.93745C1123.7 0.97915 1129.04 0 1135.1 0C1146.05 0 1154.81 3.39326 1161.37 10.1798C1167.97 16.9663 1171.26 26.4033 1171.26 38.4907C1171.26 50.4769 1168 59.8632 1161.47 66.6497C1154.95 73.4025 1146.22 76.7788 1135.3 76.7788C1124.24 76.7788 1115.45 73.4193 1108.92 66.7004C1102.39 59.9476 1099.13 50.6626 1099.13 38.8452ZM1114.6 38.3388C1114.6 46.746 1116.55 53.1273 1120.43 57.4828C1124.32 61.8046 1129.26 63.9655 1135.25 63.9655C1141.23 63.9655 1146.14 61.8215 1149.96 57.5335C1153.81 53.2117 1155.74 46.746 1155.74 38.1362C1155.74 29.6277 1153.86 23.2801 1150.11 19.0934C1146.39 14.9067 1141.44 12.8134 1135.25 12.8134C1129.06 12.8134 1124.07 14.9405 1120.28 19.1947C1116.49 23.4152 1114.6 29.7965 1114.6 38.3388Z" fill="#EB5A21"/>
<path d="M1183.03 75.5127V1.26614H1207.13C1216.26 1.26614 1222.21 1.63754 1224.99 2.38035C1229.25 3.49455 1232.81 5.92554 1235.69 9.67332C1238.56 13.3873 1240 18.1987 1240 24.1073C1240 28.6655 1239.17 32.4976 1237.52 35.6039C1235.86 38.7102 1233.74 41.1581 1231.17 42.9475C1228.64 44.7032 1226.05 45.8681 1223.41 46.4421C1219.83 47.1511 1214.64 47.5056 1207.84 47.5056H1198.05V75.5127H1183.03ZM1198.05 13.8263V34.8949H1206.27C1212.19 34.8949 1216.14 34.5066 1218.14 33.73C1220.13 32.9535 1221.69 31.738 1222.8 30.0835C1223.95 28.4291 1224.53 26.5046 1224.53 24.3099C1224.53 21.6088 1223.73 19.3804 1222.14 17.6247C1220.56 15.869 1218.54 14.7717 1216.11 14.3327C1214.32 13.9951 1210.71 13.8263 1205.3 13.8263H1198.05Z" fill="#EB5A21"/>
<path d="M1250.7 75.5127V1.26614H1273.18L1286.67 51.9118L1300.01 1.26614H1322.54V75.5127H1308.59V17.0676L1293.82 75.5127H1279.37L1264.65 17.0676V75.5127H1250.7Z" fill="#EB5A21"/>
<path d="M1404.51 75.5127H1388.18L1381.69 58.6477H1351.96L1345.82 75.5127H1329.89L1358.86 1.26614H1374.74L1404.51 75.5127ZM1376.87 46.1382L1366.62 18.587L1356.57 46.1382H1376.87Z" fill="#EB5A21"/>
<path d="M1485.17 1.69696L1469.65 74.88C1470.07 73.2631 1470.95 71.9625 1472.29 70.9783C1473.63 69.9238 1475.14 69.3965 1476.83 69.3965C1478.03 69.3965 1479.08 69.6426 1480 70.1347C1480.98 70.6268 1481.79 71.2947 1482.43 72.1383C1483.13 72.9819 1483.62 73.9661 1483.91 75.0909C1484.19 76.1454 1484.22 77.2351 1484.01 78.3599L1483.91 78.9926C1483.55 80.7501 1482.67 82.1561 1481.27 83.2106C1479.93 84.3354 1478.38 84.8978 1476.62 84.8978C1475.49 84.8978 1474.44 84.6518 1473.45 84.1597C1472.46 83.6676 1471.62 82.9997 1470.91 82.1561C1470.28 81.3125 1469.82 80.3634 1469.54 79.3089C1469.26 78.2544 1469.22 77.1296 1469.44 75.9345L1469.54 75.6182H1409.12L1424.76 1.69696H1439.97L1426.87 63.2804H1456.97L1470.18 1.69696H1485.17Z" fill="#EB5A21"/>
<path d="M1495.03 1.26614H1509.08V50.6963L1539.21 1.26614H1554.18V75.5127H1540.12V27.0448L1510.04 75.5127H1495.03V1.26614Z" fill="#EB5A21"/>
<path d="M1613.98 75.5127V44.5175H1610.94C1606.21 44.5175 1602.86 45.2266 1600.9 46.6447C1598.97 48.0627 1595.65 52.3001 1590.95 59.3567L1580.1 75.5127H1562.14L1571.22 61.028C1574.81 55.2882 1577.66 51.2703 1579.79 48.9744C1581.92 46.6447 1584.6 44.5682 1587.81 42.7449C1580.88 41.6645 1575.87 39.2673 1572.79 35.5533C1569.72 31.8055 1568.18 27.3318 1568.18 22.1322C1568.18 17.6078 1569.31 13.6068 1571.58 10.1291C1573.88 6.6177 1576.89 4.27112 1580.61 3.08939C1584.36 1.87389 1589.96 1.26614 1597.4 1.26614H1629V75.5127H1613.98ZM1613.98 13.8263H1602.27C1596.31 13.8263 1592.39 13.9613 1590.5 14.2314C1588.64 14.5015 1587.03 15.4132 1585.68 16.9663C1584.33 18.5194 1583.65 20.5453 1583.65 23.0438C1583.65 25.6436 1584.29 27.7201 1585.58 29.2732C1586.9 30.7926 1588.55 31.738 1590.55 32.1094C1592.58 32.4808 1596.69 32.6665 1602.87 32.6665H1613.98V13.8263Z" fill="#EB5A21"/>
<path d="M0 120.547H29.7267C35.6112 120.547 39.9908 120.8 42.8654 121.307C45.7738 121.779 48.3609 122.792 50.6268 124.345C52.9265 125.898 54.8372 127.975 56.3591 130.575C57.8809 133.141 58.6418 136.028 58.6418 139.235C58.6418 142.713 57.6949 145.903 55.8011 148.807C53.941 151.711 51.4046 153.889 48.1918 155.34C52.7235 156.657 56.2069 158.902 58.6418 162.076C61.0768 165.25 62.2943 168.981 62.2943 173.269C62.2943 176.645 61.4995 179.937 59.91 183.145C58.3544 186.319 56.2069 188.868 53.4676 190.792C50.7621 192.683 47.414 193.848 43.4234 194.287C40.9208 194.557 34.8841 194.726 25.3134 194.793H0V120.547ZM15.0156 132.904V150.073H24.8568C30.7075 150.073 34.343 149.989 35.7634 149.82C38.3336 149.516 40.3459 148.638 41.8001 147.186C43.2881 145.701 44.0321 143.759 44.0321 141.362C44.0321 139.066 43.3896 137.209 42.1044 135.791C40.8531 134.339 38.9762 133.461 36.4736 133.158C34.9856 132.989 30.7075 132.904 23.6394 132.904H15.0156ZM15.0156 162.431V182.284H28.9151C34.3261 182.284 37.7587 182.132 39.2129 181.828C41.445 181.423 43.2543 180.444 44.6408 178.891C46.0612 177.304 46.7714 175.194 46.7714 172.56C46.7714 170.332 46.2303 168.441 45.1481 166.888C44.0659 165.334 42.4934 164.203 40.4304 163.494C38.4013 162.785 33.971 162.431 27.1396 162.431H15.0156Z" fill="#EB5A21"/>
<path d="M100.898 158.126C100.898 150.563 102.031 144.215 104.297 139.083C105.988 135.302 108.288 131.908 111.196 128.903C114.139 125.898 117.351 123.67 120.835 122.218C125.468 120.26 130.811 119.281 136.865 119.281C147.822 119.281 156.581 122.674 163.142 129.46C169.737 136.247 173.034 145.684 173.034 157.771C173.034 169.758 169.771 179.144 163.243 185.93C156.716 192.683 147.991 196.06 137.068 196.06C126.009 196.06 117.216 192.7 110.689 185.981C104.162 179.228 100.898 169.943 100.898 158.126ZM116.371 157.619C116.371 166.027 118.315 172.408 122.204 176.764C126.093 181.085 131.031 183.246 137.017 183.246C143.003 183.246 147.907 181.102 151.728 176.814C155.584 172.492 157.511 166.027 157.511 157.417C157.511 148.908 155.634 142.561 151.88 138.374C148.16 134.187 143.206 132.094 137.017 132.094C130.828 132.094 125.84 134.221 122.052 138.475C118.264 142.696 116.371 149.077 116.371 157.619Z" fill="#EB5A21"/>
<path d="M189.369 120.547H240.756V182.335H247.3V211H234.821V194.793H187.999V211H175.52V182.335H181.81C184.888 175.987 186.917 168.626 187.897 160.253C188.878 151.846 189.369 141.227 189.369 128.397V120.547ZM203.674 133.006C203.674 155.56 201.628 172.003 197.536 182.335H225.791V133.006H203.674Z" fill="#EB5A21"/>
<path d="M257.497 194.793V120.547H272.512V149.769H301.934V120.547H316.95V194.793H301.934V162.33H272.512V194.793H257.497Z" fill="#EB5A21"/>
<path d="M329.48 158.126C329.48 150.563 330.613 144.215 332.879 139.083C334.57 135.302 336.869 131.908 339.778 128.903C342.72 125.898 345.933 123.67 349.416 122.218C354.049 120.26 359.393 119.281 365.446 119.281C376.404 119.281 385.163 122.674 391.723 129.46C398.318 136.247 401.615 145.684 401.615 157.771C401.615 169.758 398.352 179.144 391.825 185.93C385.298 192.683 376.573 196.06 365.649 196.06C354.59 196.06 345.797 192.7 339.27 185.981C332.743 179.228 329.48 169.943 329.48 158.126ZM344.952 157.619C344.952 166.027 346.897 172.408 350.786 176.764C354.675 181.085 359.612 183.246 365.598 183.246C371.584 183.246 376.488 181.102 380.31 176.814C384.165 172.492 386.093 166.027 386.093 157.417C386.093 148.908 384.216 142.561 380.462 138.374C376.742 134.187 371.787 132.094 365.598 132.094C359.41 132.094 354.421 134.221 350.634 138.475C346.846 142.696 344.952 149.077 344.952 157.619Z" fill="#EB5A21"/>
<path d="M413.182 194.793V120.547H435.654L449.148 171.193L462.489 120.547H485.013V194.793H471.062V136.348L456.301 194.793H441.843L427.132 136.348V194.793H413.182Z" fill="#EB5A21"/>
<path d="M552.02 120.978L549.485 133.21L559.096 158.096L579.587 133.21L582.228 120.978H597.226L581.594 194.793H566.596L574.412 157.991L564.166 170.329H549.062L544.204 157.886L536.387 194.793H521.283L536.916 120.978H552.02Z" fill="#EB5A21"/>
<path d="M604.862 194.793V120.547H660.003V133.107H619.877V149.567H657.213V162.076H619.877V182.284H661.424V194.793H604.862Z" fill="#EB5A21"/>
<path d="M721.739 167.495L736.298 172.104C734.066 180.207 730.346 186.234 725.138 190.185C719.964 194.101 713.386 196.06 705.405 196.06C695.53 196.06 687.413 192.7 681.055 185.981C674.697 179.228 671.518 170.011 671.518 158.329C671.518 145.971 674.714 136.382 681.106 129.562C687.498 122.708 695.902 119.281 706.318 119.281C715.415 119.281 722.805 121.965 728.486 127.333C731.868 130.507 734.405 135.065 736.095 141.008L721.232 144.553C720.353 140.704 718.51 137.665 715.703 135.437C712.93 133.208 709.548 132.094 705.557 132.094C700.045 132.094 695.564 134.069 692.114 138.02C688.698 141.97 686.991 148.368 686.991 157.214C686.991 166.601 688.681 173.286 692.063 177.27C695.445 181.254 699.842 183.246 705.253 183.246C709.243 183.246 712.676 181.98 715.551 179.448C718.425 176.915 720.488 172.931 721.739 167.495Z" fill="#EB5A21"/>
<path d="M763.337 194.793V133.107H741.27V120.547H800.368V133.107H778.352V194.793H763.337Z" fill="#EB5A21"/>
<path d="M810.108 194.793V120.547H865.25V133.107H825.124V149.567H862.46V162.076H825.124V182.284H866.67V194.793H810.108Z" fill="#EB5A21"/>
</svg>
