<svg width="690" height="204" viewBox="0 0 690 204" fill="none" xmlns="http://www.w3.org/2000/svg">
<path d="M0 38.8514C0 31.2871 1.13292 24.9385 3.39877 19.8056C5.0897 16.0235 7.38936 12.6297 10.2978 9.6242C13.24 6.61875 16.4527 4.38999 19.936 2.93792C24.5692 0.979305 29.9125 0 35.9661 0C46.9233 0 55.6823 3.3938 62.2431 10.1814C68.8377 16.969 72.135 26.4075 72.135 38.4968C72.135 50.4849 68.8715 59.8727 62.3445 66.6603C55.8176 73.4141 47.0924 76.791 36.169 76.791C25.1103 76.791 16.3175 73.431 9.79048 66.7109C3.26349 59.9571 0 50.6706 0 38.8514ZM15.472 38.3449C15.472 46.7534 17.4166 53.1357 21.3057 57.492C25.1948 61.8144 30.1323 63.9756 36.1182 63.9756C42.1041 63.9756 47.0078 61.8313 50.8293 57.5426C54.6846 53.2202 56.6123 46.7534 56.6123 38.1422C56.6123 29.6324 54.7354 23.2838 50.9815 19.0964C47.2615 14.9091 42.307 12.8154 36.1182 12.8154C29.9294 12.8154 24.9412 14.9428 21.1535 19.1978C17.3658 23.4189 15.472 29.8013 15.472 38.3449Z" fill="#EB5A21"/>
<path d="M84.2082 1.26634H139.806V13.7272H99.2237V30.9494H119.312C124.858 30.9494 129.457 31.6248 133.11 32.9756C136.762 34.3263 139.874 36.8252 142.444 40.4723C145.048 44.1194 146.35 48.3912 146.35 53.2877C146.35 58.3193 145.048 62.6249 142.444 66.2044C139.84 69.7839 136.864 72.2322 133.516 73.5492C130.202 74.8662 125.467 75.5247 119.312 75.5247H84.2082V1.26634ZM99.2237 63.0639H113.833C118.5 63.0639 121.781 62.8444 123.675 62.4054C125.568 61.9326 127.209 60.8858 128.595 59.2648C130.015 57.6439 130.726 55.6515 130.726 53.2877C130.726 49.8432 129.491 47.3443 127.023 45.791C124.588 44.2038 120.411 43.4102 114.493 43.4102H99.2237V63.0639Z" fill="#EB5A21"/>
<path d="M158.829 1.26634H173.844V63.0639H195.353V1.26634H210.318V63.0639H232.536V1.26634H247.501V63.0639H254.197V91.7339H241.718V75.5247H158.829V1.26634Z" fill="#EB5A21"/>
<path d="M264.495 75.5247V1.26634H319.636V13.8285H279.51V30.2909H316.846V42.8024H279.51V63.0132H321.057V75.5247H264.495Z" fill="#EB5A21"/>
<path d="M333.84 75.5247V1.26634H348.855V30.4935H378.278V1.26634H393.293V75.5247H378.278V43.0557H348.855V75.5247H333.84Z" fill="#EB5A21"/>
<path d="M409.069 1.26634H423.121V50.7044L453.253 1.26634H468.218V75.5247H454.167V27.0491L424.085 75.5247H409.069V1.26634Z" fill="#EB5A21"/>
<path d="M483.538 75.5247V1.26634H538.679V13.8285H498.553V30.2909H535.889V42.8024H498.553V63.0132H540.1V75.5247H483.538Z" fill="#EB5A21"/>
<path d="M50.6264 167.522L65.1853 172.131C62.9533 180.236 59.2332 186.264 54.0252 190.215C48.8509 194.132 42.2732 196.091 34.292 196.091C24.417 196.091 16.3006 192.731 9.94266 186.011C3.58477 179.257 0.405823 170.038 0.405823 158.354C0.405823 145.994 3.60168 136.404 9.99339 129.582C16.3851 122.727 24.789 119.3 35.2051 119.3C44.3023 119.3 51.6917 121.984 57.3732 127.354C60.7551 130.528 63.2915 135.087 64.9824 141.03L50.1191 144.576C49.2398 140.726 47.3967 137.687 44.5898 135.458C41.8167 133.229 38.4348 132.115 34.4442 132.115C28.9318 132.115 24.4508 134.09 21.0013 138.041C17.5857 141.992 15.8778 148.392 15.8778 157.239C15.8778 166.627 17.5687 173.313 20.9506 177.298C24.3325 181.283 28.7289 183.275 34.1398 183.275C38.1304 183.275 41.563 182.009 44.4376 179.476C47.3122 176.944 49.3751 172.959 50.6264 167.522Z" fill="#EB5A21"/>
<path d="M190.312 120.997L174.575 194.824H114.37L130.108 120.997H190.312ZM132.009 182.59H162.323L172.779 133.126H142.571L132.009 182.59ZM99.8998 194.402C100.252 192.715 101.097 191.344 102.435 190.289C103.773 189.164 105.322 188.602 107.082 188.602C108.279 188.602 109.335 188.848 110.251 189.34C111.237 189.832 112.046 190.5 112.68 191.344C113.384 192.188 113.877 193.137 114.159 194.191C114.44 195.246 114.476 196.336 114.264 197.461L114.159 198.199C113.807 199.887 112.927 201.258 111.518 202.312C110.18 203.437 108.666 204 106.977 204C105.779 204 104.688 203.754 103.702 203.262C102.716 202.77 101.871 202.102 101.167 201.258C100.534 200.414 100.076 199.465 99.7942 198.41C99.5125 197.356 99.4773 196.266 99.6886 195.141L99.8998 194.402ZM174.68 194.402C175.032 192.715 175.877 191.344 177.215 190.289C178.624 189.164 180.208 188.602 181.968 188.602C183.165 188.602 184.222 188.848 185.137 189.34C186.123 189.832 186.932 190.5 187.566 191.344C188.27 192.188 188.763 193.137 189.045 194.191C189.327 195.246 189.362 196.336 189.151 197.461L188.939 198.199C188.587 199.887 187.742 201.258 186.404 202.312C185.066 203.437 183.517 204 181.757 204C180.63 204 179.574 203.754 178.588 203.262C177.603 202.77 176.758 202.102 176.053 201.258C175.42 200.414 174.962 199.465 174.68 198.41C174.399 197.356 174.363 196.266 174.575 195.141L174.68 194.402Z" fill="#EB5A21"/>
<path d="M201.085 194.824V120.566H225.181C234.312 120.566 240.264 120.937 243.037 121.68C247.298 122.795 250.866 125.226 253.74 128.974C256.615 132.689 258.052 137.501 258.052 143.411C258.052 147.97 257.224 151.802 255.567 154.909C253.909 158.016 251.796 160.464 249.226 162.254C246.689 164.01 244.102 165.175 241.464 165.749C237.879 166.458 232.688 166.813 225.891 166.813H216.1V194.824H201.085ZM216.1 133.128V154.2H224.318C230.236 154.2 234.193 153.812 236.189 153.035C238.184 152.258 239.74 151.043 240.856 149.388C242.005 147.733 242.58 145.808 242.58 143.613C242.58 140.912 241.786 138.683 240.196 136.927C238.607 135.171 236.594 134.074 234.159 133.635C232.367 133.297 228.765 133.128 223.354 133.128H216.1Z" fill="#EB5A21"/>
<path d="M261.4 120.566H278.191L295.54 159.113L310.353 120.566H326.028L300.917 176.994C298.178 183.106 295.388 187.767 292.547 190.975C289.706 194.149 286.037 195.736 281.539 195.736C277.109 195.736 273.643 195.449 271.14 194.875V183.731C273.271 183.866 275.198 183.934 276.923 183.934C280.406 183.934 282.892 183.309 284.38 182.06C285.902 180.776 287.356 178.041 288.743 173.854L261.4 120.566Z" fill="#EB5A21"/>
<path d="M344.188 140.827L329.579 137.434C332.724 125.344 341.669 119.3 356.414 119.3C365.139 119.3 371.716 121.224 376.147 125.074C380.611 128.89 382.843 133.381 382.843 138.548C382.843 142.094 381.828 145.302 379.799 148.172C377.77 151.009 374.726 153.508 370.668 155.669C375.606 157.357 379.309 159.755 381.778 162.862C384.246 165.935 385.481 169.734 385.481 174.259C385.481 180.776 383.08 186.044 378.277 190.063C373.509 194.081 366.356 196.091 356.819 196.091C349.041 196.091 342.903 194.807 338.405 192.241C333.907 189.641 330.525 184.795 328.26 177.703L342.007 173.195C343.427 177.653 345.304 180.54 347.638 181.857C350.005 183.174 352.913 183.832 356.363 183.832C361.097 183.832 364.547 182.819 366.711 180.793C368.876 178.733 369.958 176.386 369.958 173.752C369.958 170.713 368.724 168.265 366.255 166.408C363.82 164.55 360.134 163.622 355.196 163.622H351.797V152.427H353.522C358.121 152.427 361.639 151.397 364.073 149.337C366.508 147.277 367.726 144.542 367.726 141.131C367.726 138.43 366.728 136.15 364.733 134.293C362.771 132.436 359.948 131.507 356.261 131.507C349.971 131.507 345.947 134.614 344.188 140.827Z" fill="#EB5A21"/>
<path d="M399.025 120.566H414.04V150.249H434.129C443.598 150.249 450.446 152.461 454.673 156.885C458.935 161.308 461.065 166.61 461.065 172.79C461.065 177.855 459.78 182.161 457.21 185.707C454.64 189.252 451.697 191.667 448.383 192.95C445.103 194.2 440.351 194.824 434.129 194.824H399.025V120.566ZM414.04 182.363H428.65C433.385 182.363 436.665 182.144 438.491 181.705C440.317 181.232 441.941 180.185 443.361 178.564C444.815 176.944 445.542 174.951 445.542 172.587C445.542 169.177 444.308 166.678 441.839 165.091C439.404 163.503 435.228 162.71 429.31 162.71H414.04V182.363Z" fill="#EB5A21"/>
<path d="M513.924 194.824V163.824H510.88C506.145 163.824 502.797 164.533 500.836 165.952C498.908 167.37 495.594 171.608 490.893 178.666L480.037 194.824H462.08L471.16 180.337C474.745 174.597 477.602 170.578 479.733 168.282C481.864 165.952 484.535 163.875 487.748 162.051C480.815 160.971 475.81 158.573 472.733 154.859C469.655 151.11 468.116 146.636 468.116 141.435C468.116 136.91 469.249 132.909 471.515 129.43C473.815 125.918 476.825 123.571 480.545 122.389C484.299 121.174 489.896 120.566 497.336 120.566H528.939V194.824H513.924ZM513.924 133.128H502.205C496.253 133.128 492.33 133.263 490.437 133.533C488.577 133.803 486.97 134.715 485.617 136.269C484.265 137.822 483.588 139.848 483.588 142.347C483.588 144.947 484.231 147.024 485.516 148.577C486.835 150.097 488.492 151.043 490.487 151.414C492.516 151.786 496.625 151.971 502.814 151.971H513.924V133.128Z" fill="#EB5A21"/>
<path d="M543.904 194.824V120.566H566.376L579.87 171.22L593.211 120.566H615.734V194.824H601.784V136.37L587.022 194.824H572.565L557.854 136.37V194.824H543.904Z" fill="#EB5A21"/>
<path d="M630.851 120.566H644.903V170.004L675.035 120.566H690V194.824H675.948V146.349L645.867 194.824H630.851V120.566Z" fill="#EB5A21"/>
</svg>
